<svg width="19"
     height="16"
     fill="none"
     xmlns="http://www.w3.org/2000/svg">
  <path d="M16.773 0H2.227C.998 0 0 1.035 0 2.308V4.21l8.171 6.3c.397.306.863.459 1.329.459a2.17 2.17 0 001.329-.46l8.17-6.299V2.308C19 1.035 18.002 0 16.774 0zm.743 3.438L9.943 9.276a.717.717 0 01-.886 0L1.484 3.438v-1.13c0-.425.333-.77.743-.77h14.546c.41 0 .743.345.743.77v1.13zm0 3.835L19 6.13v7.563C19 14.965 18 16 16.773 16H2.227C.998 16 0 14.965 0 13.692V6.13l1.484 1.144v6.42c0 .424.333.768.743.768h14.546c.41 0 .743-.345.743-.769V7.273z"
        fill="#fff" />
</svg>