<svg width="29"
     height="29"
     fill="none"
     xmlns="http://www.w3.org/2000/svg">
  <path d="M14.5 0C6.536 0 0 6.536 0 14.5 0 21.296 4.77 27.47 11.1 29v-4.797c-.627.137-1.204.141-1.843-.047-.857-.253-1.553-.824-2.07-1.695-.33-.555-.913-1.158-1.523-1.114l-.15-1.692c1.317-.113 2.457.802 3.133 1.939.3.505.647.801 1.09.932.43.126.89.066 1.427-.124.135-1.075.627-1.477 1-2.043v-.001c-3.778-.564-5.283-2.567-5.88-4.149-.792-2.1-.367-4.723 1.033-6.38.027-.033.076-.117.057-.177-.642-1.939.14-3.543.169-3.713.74.22.86-.22 3.218 1.212l.407.245c.17.101.117.043.287.03.984-.267 2.021-.414 3.043-.428 1.03.013 2.061.16 3.085.439l.132.013c-.011-.002.036-.009.115-.056 2.944-1.783 2.839-1.2 3.628-1.456.028.17.8 1.8.165 3.714-.085.264 2.552 2.68 1.09 6.556-.597 1.582-2.102 3.586-5.879 4.15.485.738 1.066 1.13 1.063 2.653V29c6.333-1.53 11.101-7.704 11.101-14.5C29 6.536 22.464 0 14.5 0z"
        fill="#fff" />
</svg>