<svg width="166" height="30" fill="none" xmlns="http://www.w3.org/2000/svg"><g clip-path="url(#prefix__clip0)"><path d="M47.547 21.981l.118-.191c1.294-2.203 2.588-4.406 3.886-6.607.077-.131.084-.225.004-.36a1673.848 1673.848 0 01-3.894-6.626c-.08-.137-.166-.179-.32-.178-4.135.003-8.27.001-12.403 0h-.287c.049-.092.077-.15.11-.206 1.494-2.544 2.99-5.087 4.48-7.635.08-.136.166-.177.32-.177 3.747.004 7.494.005 11.241.002.79 0 1.443.283 1.946.883.098.117.18.25.257.384l7.982 13.58.085.152-.116.204c-2.657 4.522-5.312 9.044-7.971 13.564-.48.816-1.206 1.227-2.165 1.227-5.325.002-10.65.001-15.973.001h-.205c-.042-.07-.082-.131-.12-.194L25.89 15.112c-1.348-2.295-2.698-4.59-4.04-6.89-.091-.156-.19-.204-.368-.204-2.577.006-5.155.006-7.732 0-.172 0-.264.05-.35.198-1.278 2.189-2.564 4.374-3.848 6.559l-.126.218c.025.05.05.104.08.155 1.308 2.226 2.617 4.451 3.92 6.68.08.136.173.156.311.156 4.135-.003 8.27-.002 12.404-.001h.26l.013.026c.002.006.007.014.004.018-.017.036-.033.073-.053.108-1.54 2.618-3.078 5.236-4.621 7.863H10.276c-.977 0-1.71-.413-2.198-1.243l-7.99-13.6c-.031-.051-.057-.105-.088-.16l.268-.456C2.828 10.18 5.39 5.82 7.952 1.46c.061-.104.122-.209.186-.31C8.577.452 9.213.074 10.044.01c.094-.007.19-.006.285-.006h15.85c.027 0 .055.004.082 0 .137-.024.206.044.27.155.478.823.962 1.644 1.444 2.465 2.4 4.082 4.798 8.164 7.196 12.246a4362.56 4362.56 0 014.062 6.923c.08.136.164.192.332.192 2.59-.006 5.181-.004 7.772-.004h.21z" fill="#01829E"/><path d="M56.961 21.984c-.045.088-.074.147-.106.203-1.294 2.203-2.585 4.408-3.884 6.608-.469.792-1.185 1.202-2.117 1.203-5.344.005-10.69.002-16.033.002h-.177L17.018.017c.1-.005.166-.01.23-.01 3-.002 5.998 0 8.997-.004.138 0 .217.04.289.161 2.89 4.928 5.785 9.853 8.68 14.78 1.348 2.294 2.697 4.59 4.04 6.888.08.136.172.156.312.156 5.684-.003 11.369-.003 17.053-.003h.342zM4.706 6.988L0 14.996l.09.166 7.99 13.597c.488.83 1.224 1.24 2.2 1.24h11.464c1.548-2.633 3.09-5.256 4.63-7.88.018-.029.03-.06.044-.09.002-.006-.002-.013-.004-.019l-.014-.027H13.515L4.705 6.988z" fill="url(#prefix__paint0_linear)"/><path fill-rule="evenodd" clip-rule="evenodd" d="M73.339 6.728h-2.693v12.674h8.266v-2.388h-5.573V6.728zm13.39 10.47h-2.73c-.4 0-.6-.195-.6-.588V9.704h-2.58v6.723c0 1.983 1.01 2.975 3.03 2.975h5.46V9.704h-2.58v7.494zm11.22-7.494h-2.88c-2.02 0-3.03.992-3.03 2.975v3.748c0 1.983 1.01 2.975 3.03 2.975h5.461V5.81h-2.581v3.894zm0 7.494h-2.73c-.4 0-.599-.195-.599-.588v-4.114c0-.392.2-.588.599-.588h2.73v5.29zm10.959-7.494h-2.618c-2.02 0-3.03.992-3.03 2.975v3.748c0 1.983 1.01 2.975 3.03 2.975h2.618c2.019 0 3.029-.992 3.029-2.975v-3.748c0-1.983-1.01-2.975-3.029-2.975zm.448 6.906c0 .393-.199.588-.598.588h-2.319c-.399 0-.598-.195-.598-.588v-4.114c0-.392.199-.588.598-.588h2.319c.399 0 .598.196.598.588v4.114zm8.19-9.882h-2.692v12.674h8.265v-2.388h-5.573V6.728zM130.6 9.704h-2.619c-2.019 0-3.029.992-3.029 2.975v3.748c0 1.983 1.01 2.975 3.029 2.975h2.619c2.019 0 3.029-.992 3.029-2.975v-3.748c0-1.983-1.01-2.975-3.029-2.975zm.448 6.906c0 .393-.199.588-.598.588h-2.319c-.399 0-.598-.195-.598-.588v-4.114c0-.392.199-.588.598-.588h2.319c.399 0 .598.196.598.588v4.114zm10.809-6.906h-2.618c-2.019 0-3.029.992-3.029 2.975v3.748c0 1.983 1.01 2.975 3.029 2.975h2.618c2.02 0 3.03-.992 3.03-2.975v-3.748c0-1.983-1.01-2.975-3.03-2.975zm.449 6.906c0 .393-.2.588-.598.588h-2.319c-.4 0-.599-.195-.599-.588v-4.114c0-.392.199-.588.599-.588h2.319c.398 0 .598.196.598.588v4.114zm10.772-6.906h-5.461v13.372h2.581v-3.674h2.88c2.019 0 3.029-.992 3.029-2.975v-3.748c0-1.983-1.01-2.975-3.029-2.975zm.449 6.906c0 .393-.2.588-.599.588h-2.73v-5.29h2.73c.399 0 .599.196.599.588v4.114zm10.098-2.847l-2.001-.33c-.387-.061-.58-.337-.58-.827 0-.465.212-.698.636-.698h3.871V10.53l-1.122-.826h-2.899c-2.019 0-3.029.98-3.029 2.939 0 1.543.797 2.45 2.394 2.718l2.019.33c.349.063.524.332.524.81 0 .465-.213.697-.636.697h-4.301v1.378l1.122.826h3.329c2.031 0 3.048-.985 3.048-2.957 0-1.53-.792-2.425-2.375-2.682z" fill="#fff"/></g><defs><linearGradient id="prefix__paint0_linear" x1="55.929" y1="50.956" x2="-1.343" y2="-13.801" gradientUnits="userSpaceOnUse"><stop offset=".33" stop-color="#01FEDA"/><stop offset=".665" stop-color="#01FEFE"/></linearGradient><clipPath id="prefix__clip0"><path fill="#fff" d="M0 0h166v30H0z"/></clipPath></defs></svg>