<svg width="293" height="158" viewBox="0 0 293 158" fill="none" xmlns="http://www.w3.org/2000/svg">
<path d="M293 115.775C292.759 116.237 292.612 116.549 292.442 116.844C285.651 128.445 278.873 140.059 272.051 151.647C269.593 155.82 265.836 157.979 260.941 157.984C232.889 158.01 204.832 157.997 176.779 157.997C176.494 157.997 176.213 157.997 175.851 157.997C145.037 105.406 114.227 52.8107 83.3283 0.0747591C83.8593 0.0483735 84.2029 0.0175904 84.542 0.0175904C100.284 0.0131928 116.021 0.021988 131.763 0C132.49 0 132.905 0.211084 133.28 0.848735C148.455 26.8033 163.648 52.7447 178.841 78.6905C185.918 90.7795 193.003 102.868 200.053 114.975C200.468 115.687 200.954 115.793 201.686 115.793C231.523 115.78 261.365 115.78 291.202 115.78C291.733 115.775 292.268 115.775 293 115.775ZM18.7014 36.7903C10.4021 50.9637 2.20553 64.9612 -6 78.9676C-5.82152 79.293 -5.67874 79.57 -5.52257 79.8427C8.45673 103.717 22.4316 127.587 36.4153 151.458C38.9765 155.829 42.8361 157.992 47.9584 157.992C67.6222 157.992 87.2861 157.992 106.95 157.992C107.338 157.992 107.726 157.992 108.137 157.992C116.262 144.122 124.356 130.305 132.446 116.483C132.535 116.334 132.602 116.167 132.673 116.009C132.682 115.982 132.664 115.943 132.651 115.912C132.637 115.881 132.62 115.85 132.579 115.771C110.087 115.771 87.5716 115.771 64.9451 115.771C49.5335 89.447 34.1576 63.1846 18.7014 36.7903Z" fill="#0C265B" fill-opacity="0.4"/>
</svg>
