<svg width="38" height="32" viewBox="0 0 38 32" fill="none" xmlns="http://www.w3.org/2000/svg">
<g clip-path="url(#clip0_1011_309)">
<path d="M10.6148 22.699H11.8238H32.4336C32.9316 22.699 33.3702 22.3767 33.5127 21.9068L37.9532 7.22552C38.0549 6.89008 37.9889 6.52687 37.7766 6.24624C37.5643 5.96561 37.2296 5.80044 36.8741 5.80044H8.2227L6.70789 0.792199C6.56539 0.322287 6.12676 0 5.62875 0H1.1259C0.503945 0 0 0.49622 0 1.10864C0 1.72106 0.503945 2.21728 1.1259 2.21728H4.78934L6.29746 7.20214C6.30191 7.21895 6.30711 7.23502 6.3123 7.2511L10.3179 20.4934C8.03195 20.6447 6.21805 22.5236 6.21805 24.8125C6.21805 27.2 8.19078 29.1425 10.6155 29.1425H11.7332C12.2216 30.7912 13.7698 32 15.6 32C17.4303 32 18.9785 30.7912 19.4668 29.1425H25.44C25.9283 30.7912 27.4765 32 29.3068 32C31.137 32 32.6852 30.7912 33.1736 29.1425H34.6238C35.2457 29.1425 35.7497 28.6463 35.7497 28.0339C35.7497 27.4215 35.2457 26.9253 34.6238 26.9253H33.1736C32.6852 25.2765 31.137 24.0678 29.3068 24.0678C27.4765 24.0678 25.9283 25.2765 25.44 26.9253H19.4668C18.9785 25.2765 17.4303 24.0678 15.6 24.0678C13.7698 24.0678 12.2216 25.2765 11.7332 26.9253H10.6155C9.43246 26.9253 8.46984 25.9774 8.46984 24.8125C8.4691 23.6468 9.43172 22.699 10.6148 22.699ZM27.1307 8.01772H35.3645L33.8148 13.1414H27.1307V8.01772ZM27.1307 15.3587H33.1446L31.5949 20.4824H27.1307V15.3587ZM18.7996 8.01772H24.8781V13.1414H18.7996V8.01772ZM18.7996 15.3587H24.8789V20.4824H18.8004L18.7996 15.3587ZM16.5486 20.4824H12.6632L11.1135 15.3587H16.5486V20.4824ZM8.89363 8.01772H16.5486V13.1414H10.4426L8.89363 8.01772ZM29.3053 26.2843C30.285 26.2843 31.0813 27.0692 31.0813 28.0332C31.0813 28.9971 30.2842 29.782 29.3053 29.782C28.3263 29.782 27.5292 28.9971 27.5292 28.0332C27.5292 27.0692 28.3263 26.2843 29.3053 26.2843ZM15.5993 26.2843C16.579 26.2843 17.3754 27.0692 17.3754 28.0332C17.3754 28.9971 16.5782 29.782 15.5993 29.782C14.6204 29.782 13.8232 28.9971 13.8232 28.0332C13.8232 27.0692 14.6196 26.2843 15.5993 26.2843Z" fill="#4831B5"/>
</g>
<defs>
<clipPath id="clip0_1011_309">
<rect width="38" height="32" fill="white"/>
</clipPath>
</defs>
</svg>
