<svg width="30" height="33" viewBox="0 0 30 33" fill="none" xmlns="http://www.w3.org/2000/svg">
<g clip-path="url(#clip0_1011_313)">
<path d="M24.2984 10.4863C24.2913 10.3819 24.281 10.2787 24.268 10.1769C24.8255 4.42187 20.3837 -0.323169 14.453 0.0177879C9.53707 0.301382 5.6857 4.37095 5.6857 9.28293C5.6857 9.66513 5.70574 9.87267 5.7245 10.2085C5.71286 10.3019 5.70445 10.3967 5.69798 10.4914C1.98113 12.3071 -2.27964 24.1845 1.42881 25.6914C2.50047 26.1265 3.55984 25.4761 4.37474 24.664C4.64831 25.9093 5.15278 27.0907 5.87325 28.169C5.1172 28.9566 4.6509 30.0227 4.6509 31.1957V31.9691C4.6509 32.5389 5.11397 33.0004 5.6857 33.0004H12.4119C12.6292 33.0004 12.8303 32.9334 12.9965 32.8199C14.3256 33.061 15.6708 33.061 17.0005 32.8199C17.1667 32.934 17.3685 33.0004 17.5852 33.0004H24.3114C24.8831 33.0004 25.3461 32.5389 25.3461 31.9691C25.3461 31.0597 25.4703 29.5708 24.1244 28.169C24.8449 27.0907 25.3494 25.9099 25.623 24.6647C26.4379 25.4761 27.4972 26.1271 28.5689 25.6914C32.2967 24.1761 27.9829 12.2942 24.2984 10.4863ZM21.6797 6.34128C19.4226 5.0664 16.5653 5.66066 14.9988 7.73927C13.4324 5.66066 10.6204 5.09798 8.40656 6.29101C11.0317 0.557905 19.312 0.728706 21.6797 6.34128ZM2.22366 23.7327C1.52259 22.14 3.12005 16.0151 5.72385 13.0973C5.47162 17.638 4.37151 19.2667 4.1736 21.5206C4.16131 21.6612 2.98941 23.3885 2.22366 23.7327ZM6.73472 30.9379C6.86407 29.7797 7.8523 28.8754 9.04878 28.8754C10.2453 28.8754 11.2335 29.779 11.3628 30.9379H6.73472ZM13.4279 30.8012C13.1757 27.993 10.3274 26.1174 7.61429 27.0533C6.59114 25.5341 6.10996 23.7636 6.21861 21.9273C6.33568 19.9738 7.13182 19.0128 7.62076 15.1121C7.81608 13.5426 7.88011 11.9281 7.80185 10.3013C8.05408 8.84593 9.32882 7.73541 10.8597 7.73541C12.4927 7.73541 13.8347 8.99869 13.9544 10.5965C13.3419 10.9548 12.9293 11.6181 12.9293 12.376C12.9293 13.0528 13.554 14.4076 14.0785 15.4253C14.4627 16.171 15.535 16.171 15.9198 15.4253C16.4437 14.4076 17.0691 13.0528 17.0691 12.376C17.0691 11.6181 16.6565 10.9548 16.044 10.5965C16.1636 8.99933 17.5056 7.73541 19.1387 7.73541C20.6411 7.73541 21.897 8.80468 22.1823 10.2188C22.0658 11.1082 21.1158 14.6261 23.089 19.0843C24.2046 21.6051 24.0223 24.6208 22.384 27.0533C19.6703 26.1168 16.8227 27.9937 16.5704 30.8012C15.5266 30.983 14.4717 30.9837 13.4279 30.8012ZM18.6342 30.9379C18.7636 29.7797 19.7518 28.8754 20.9483 28.8754C22.1448 28.8754 23.133 29.779 23.2623 30.9379H18.6342ZM27.774 23.7327C27.4927 23.6063 26.7716 23.0772 25.826 21.5451C25.729 20.4069 25.4457 19.3002 24.9814 18.2522C24.2577 16.6177 23.8987 14.8936 23.9181 13.1843C24.0029 13.1172 24.0772 13.0386 24.1374 12.949C25.8241 14.7183 27.5936 18.7975 27.8924 21.8345C28.0004 22.9347 27.8704 23.5135 27.774 23.7327Z" fill="#4831B5"/>
</g>
<defs>
<clipPath id="clip0_1011_313">
<rect width="30" height="33" fill="white"/>
</clipPath>
</defs>
</svg>
