<svg width="33" height="33" viewBox="0 0 33 33" fill="none" xmlns="http://www.w3.org/2000/svg">
<g clip-path="url(#clip0_1011_315)">
<path d="M33 10.6348C33 10.2487 32.9252 9.87357 32.7776 9.51973C32.7776 9.51973 32.7776 9.51908 32.777 9.51908L29.5543 1.78471C29.1025 0.700606 28.0513 0 26.877 0H6.12305C4.94871 0 3.89748 0.700606 3.44566 1.78471L0.222363 9.51973C0.0747656 9.87357 0 10.2487 0 10.6348V14.6309C0 15.3734 0.280371 16.0508 0.740566 16.5645C0.280371 17.0781 0 17.7555 0 18.498V22.3652C0 23.1077 0.280371 23.7851 0.740566 24.2988C0.280371 24.8125 0 25.4899 0 26.2324V30.0996C0 31.6987 1.30131 33 2.90039 33H30.0996C31.6987 33 33 31.6987 33 30.0996V26.2324C33 25.4899 32.7196 24.8125 32.2594 24.2988C32.7196 23.7851 33 23.1077 33 22.3652V18.498C33 17.7555 32.7196 17.0781 32.2594 16.5645C32.7196 16.0508 33 15.3734 33 14.6309V10.6348ZM5.23037 2.5285C5.38119 2.16691 5.73182 1.93359 6.12305 1.93359H26.877C27.2682 1.93359 27.6188 2.16691 27.7696 2.5285L29.9391 7.73438H3.06088L5.23037 2.5285ZM31.0664 30.0996C31.0664 30.6326 30.6326 31.0664 30.0996 31.0664H2.90039C2.36736 31.0664 1.93359 30.6326 1.93359 30.0996V26.2324C1.93359 25.6994 2.36736 25.2656 2.90039 25.2656H30.0996C30.6326 25.2656 31.0664 25.6994 31.0664 26.2324V30.0996ZM31.0664 22.3652C31.0664 22.8983 30.6326 23.332 30.0996 23.332H2.90039C2.36736 23.332 1.93359 22.8983 1.93359 22.3652V18.498C1.93359 17.965 2.36736 17.5312 2.90039 17.5312H30.0996C30.6326 17.5312 31.0664 17.965 31.0664 18.498V22.3652ZM31.0664 14.6309C31.0664 15.1639 30.6326 15.5977 30.0996 15.5977H2.90039C2.36736 15.5977 1.93359 15.1639 1.93359 14.6309V10.6348C1.93359 10.0972 2.36801 9.66797 2.90039 9.66797H30.0996C30.6339 9.66797 31.0664 10.0985 31.0664 10.6348V14.6309Z" fill="#4831B5"/>
<path d="M28.166 27.1992H10.6348C10.1011 27.1992 9.66797 27.6323 9.66797 28.166C9.66797 28.6997 10.1011 29.1328 10.6348 29.1328H28.166C28.6997 29.1328 29.1328 28.6997 29.1328 28.166C29.1328 27.6323 28.6997 27.1992 28.166 27.1992Z" fill="#4831B5"/>
<path d="M28.166 11.6016H10.6348C10.1011 11.6016 9.66797 12.0347 9.66797 12.5684C9.66797 13.102 10.1011 13.5352 10.6348 13.5352H28.166C28.6997 13.5352 29.1328 13.102 29.1328 12.5684C29.1328 12.0347 28.6997 11.6016 28.166 11.6016Z" fill="#4831B5"/>
<path d="M4.83398 11.6016C4.30031 11.6016 3.86719 12.0347 3.86719 12.5684C3.86719 13.102 4.30031 13.6641 4.83398 13.6641C5.36766 13.6641 5.80078 13.102 5.80078 12.5684C5.80078 12.0347 5.36766 11.6016 4.83398 11.6016Z" fill="#4831B5"/>
<path d="M28.166 19.4648H10.6348C10.1011 19.4648 9.66797 19.898 9.66797 20.4316C9.66797 20.9653 10.1011 21.3984 10.6348 21.3984H28.166C28.6997 21.3984 29.1328 20.9653 29.1328 20.4316C29.1328 19.898 28.6997 19.4648 28.166 19.4648Z" fill="#4831B5"/>
<path d="M4.83398 21.3984C5.36793 21.3984 5.80078 20.9656 5.80078 20.4316C5.80078 19.8977 5.36793 19.4648 4.83398 19.4648C4.30004 19.4648 3.86719 19.8977 3.86719 20.4316C3.86719 20.9656 4.30004 21.3984 4.83398 21.3984Z" fill="#4831B5"/>
<path d="M4.83398 29.1328C5.36793 29.1328 5.80078 28.7 5.80078 28.166C5.80078 27.6321 5.36793 27.1992 4.83398 27.1992C4.30004 27.1992 3.86719 27.6321 3.86719 28.166C3.86719 28.7 4.30004 29.1328 4.83398 29.1328Z" fill="#4831B5"/>
</g>
<defs>
<clipPath id="clip0_1011_315">
<rect width="33" height="33" fill="white"/>
</clipPath>
</defs>
</svg>
