<svg width="33" height="30" viewBox="0 0 33 30" fill="none" xmlns="http://www.w3.org/2000/svg">
<g clip-path="url(#clip0_1011_305)">
<path d="M15.8168 19.4067C16.1945 19.7889 16.8068 19.7889 17.1838 19.4067L23.2721 13.2452C25.0884 11.407 25.0884 8.4163 23.2721 6.57816C22.3923 5.68779 21.2225 5.19727 19.9779 5.19727C18.7333 5.19727 17.5635 5.68779 16.6837 6.57816L16.5 6.76406L16.3157 6.57751C14.4994 4.73936 11.5442 4.73936 9.72791 6.57751C7.90775 8.41956 7.90711 11.4018 9.72791 13.2445L15.8168 19.4067ZM13.0215 7.15348C13.7491 7.15348 14.4336 7.44048 14.948 7.96101L15.8162 8.83964C16.1938 9.22123 16.8062 9.22188 17.1832 8.83964L18.0507 7.96166C18.5651 7.44048 19.2496 7.15413 19.9772 7.15413C22.3865 7.15413 23.6214 10.1233 21.9044 11.8617L16.4994 17.3318L11.0943 11.8617C9.39533 10.1416 10.5838 7.15348 13.0215 7.15348Z" fill="#4831B5"/>
<path d="M5.88135 23.5861H11.1671L15.7324 29.6165C16.1191 30.1272 16.8809 30.1272 17.267 29.6165L21.8322 23.5861H27.118C30.3613 23.5861 32.9994 20.9156 32.9994 17.6339V5.95212C33 2.67046 30.3613 0 27.1186 0H5.88135C2.63871 0 0 2.67046 0 5.95212V17.6339C0 20.9162 2.63871 23.5861 5.88135 23.5861ZM1.93359 5.95212C1.93359 3.74935 3.70477 1.95686 5.88135 1.95686H27.118C29.2952 1.95686 31.0664 3.74935 31.0664 5.95212V17.6339C31.0664 19.8367 29.2952 21.6292 27.1186 21.6292H21.3553C21.0543 21.6292 20.7707 21.7707 20.5876 22.0127L16.5 27.413L12.4124 22.0127C12.2293 21.7714 11.9457 21.6292 11.6447 21.6292H5.88135C3.70412 21.6292 1.93359 19.8367 1.93359 17.6339V5.95212Z" fill="#4831B5"/>
</g>
<defs>
<clipPath id="clip0_1011_305">
<rect width="33" height="30" fill="white"/>
</clipPath>
</defs>
</svg>
