<svg width="33" height="33" viewBox="0 0 33 33" fill="none" xmlns="http://www.w3.org/2000/svg">
<g clip-path="url(#clip0_1011_2)">
<path d="M29.4551 0H3.54492C1.59006 0 0 1.59006 0 3.54492V29.4551C0 31.4093 1.59006 33 3.54492 33H29.4551C31.4093 33 33 31.4099 33 29.4551V3.54492C33 1.59006 31.4099 0 29.4551 0ZM3.54492 1.93359H29.4551C30.3432 1.93359 31.0664 2.65611 31.0664 3.54492V7.79883H1.93359V3.54492C1.93359 2.65611 2.65611 1.93359 3.54492 1.93359ZM29.4551 31.0664H3.54492C2.65676 31.0664 1.93359 30.3439 1.93359 29.4551V9.73242H31.0664V29.4551C31.0664 30.3439 30.3439 31.0664 29.4551 31.0664Z" fill="#4831B5"/>
<path d="M29.0684 4.89844C29.0684 5.43275 28.6359 5.86523 28.1016 5.86523C27.5672 5.86523 27.1348 5.43275 27.1348 4.89844C27.1348 4.36412 27.5672 3.93164 28.1016 3.93164C28.6359 3.93164 29.0684 4.36412 29.0684 4.89844Z" fill="#4831B5"/>
<path d="M25.2012 4.89844C25.2012 5.43275 24.7687 5.86523 24.2344 5.86523C23.7001 5.86523 23.2676 5.43275 23.2676 4.89844C23.2676 4.36412 23.7001 3.93164 24.2344 3.93164C24.7687 3.93164 25.2012 4.36412 25.2012 4.89844Z" fill="#4831B5"/>
<path d="M21.334 4.89844C21.334 5.43275 20.9015 5.86523 20.3672 5.86523C19.8329 5.86523 19.4004 5.43275 19.4004 4.89844C19.4004 4.36412 19.8329 3.93164 20.3672 3.93164C20.9015 3.93164 21.334 4.36412 21.334 4.89844Z" fill="#4831B5"/>
<path d="M10.6992 15.5332H22.3008C22.8351 15.5332 23.2676 15.1007 23.2676 14.5664C23.2676 14.0321 22.8351 13.5996 22.3008 13.5996H10.6992C10.1649 13.5996 9.73242 14.0321 9.73242 14.5664C9.73242 15.1007 10.1649 15.5332 10.6992 15.5332Z" fill="#4831B5"/>
<path d="M26.168 17.4668H6.83203C6.29771 17.4668 5.86523 17.8993 5.86523 18.4336C5.86523 18.9679 6.29771 19.4004 6.83203 19.4004H26.168C26.7023 19.4004 27.1348 18.9679 27.1348 18.4336C27.1348 17.8993 26.7023 17.4668 26.168 17.4668Z" fill="#4831B5"/>
<path d="M19.4004 21.334H13.5996C12.0005 21.334 10.6992 22.6353 10.6992 24.2344C10.6992 25.8335 12.0005 27.1348 13.5996 27.1348H19.4004C20.9995 27.1348 22.3008 25.8335 22.3008 24.2344C22.3008 22.6353 20.9995 21.334 19.4004 21.334ZM19.4004 25.2012H13.5996C13.0666 25.2012 12.6328 24.7674 12.6328 24.2344C12.6328 23.7013 13.0666 23.2676 13.5996 23.2676H19.4004C19.9334 23.2676 20.3672 23.7013 20.3672 24.2344C20.3672 24.7674 19.9334 25.2012 19.4004 25.2012Z" fill="#4831B5"/>
</g>
<defs>
<clipPath id="clip0_1011_2">
<rect width="33" height="33" fill="white"/>
</clipPath>
</defs>
</svg>
