<svg width="260" height="260" fill="none" xmlns="http://www.w3.org/2000/svg"><path fill="url(#prefix__paint0_linear_1065_2)" d="M0 0h260v260H0z"/><path d="M184.037 152.176c.13-.212.254-.408.373-.607 4.112-6.997 8.222-13.996 12.345-20.987.246-.417.268-.714.014-1.143a5360.423 5360.423 0 01-12.37-21.048c-.254-.435-.526-.568-1.018-.565-13.133.008-26.267.002-39.398 0h-.913c.157-.292.246-.478.349-.655 4.746-8.082 9.502-16.16 14.232-24.252.254-.433.529-.565 1.018-.565 11.903.013 23.805.016 35.707.008 2.512-.003 4.583.899 6.181 2.803.313.374.573.798.818 1.22 8.455 14.38 16.903 28.761 25.355 43.141.086.146.167.297.27.48-.119.21-.243.43-.37.647-8.438 14.365-16.873 28.729-25.32 43.088-1.522 2.592-3.831 3.899-6.877 3.899-16.914.006-33.828.003-50.739.003h-.651c-.135-.22-.262-.417-.38-.615l-27.421-46.672c-4.282-7.291-8.57-14.582-12.834-21.886-.289-.496-.602-.65-1.169-.647-8.187.019-16.374.019-24.56 0-.546 0-.838.159-1.11.629-4.062 6.951-8.147 13.892-12.227 20.833-.13.22-.257.443-.4.692.081.159.16.332.254.493 4.156 7.071 8.314 14.139 12.453 21.221.251.429.549.493.989.493 13.133-.008 26.267-.005 39.401-.003h.826c.022.046.032.061.04.083.009.018.022.045.014.058-.054.114-.105.231-.17.342l-14.678 24.979H65.64c-3.1 0-5.43-1.313-6.98-3.949-8.462-14.399-16.922-28.798-25.382-43.2-.097-.164-.18-.334-.278-.512l.85-1.445c8.136-13.85 16.272-27.697 24.41-41.547.195-.332.389-.663.592-.987 1.393-2.212 3.415-3.413 6.053-3.617.3-.024.605-.022.908-.022h50.347c.087 0 .176.014.259-.002.435-.075.654.143.859.496 1.518 2.615 3.057 5.222 4.588 7.829 7.62 12.967 15.24 25.933 22.857 38.9a13441.32 13441.32 0 0112.904 21.992c.254.433.521.61 1.053.61 8.23-.018 16.46-.013 24.69-.013h.667z" fill="#01829E"/><path d="M214 152.345c-.146.28-.235.47-.338.649-4.111 7.048-8.214 14.105-12.343 21.146-1.489 2.535-3.763 3.847-6.726 3.85-16.982.016-33.966.008-50.947.008h-.562L87.075 82.045c.321-.016.53-.034.735-.034 9.529-.003 19.056.002 28.585-.011.44 0 .691.128.918.516 9.187 15.77 18.384 31.531 27.581 47.296 4.284 7.345 8.573 14.69 12.84 22.046.252.433.546.497.989.497 18.062-.008 36.127-.008 54.188-.008.322-.002.646-.002 1.089-.002zM47.953 104.354C42.929 112.965 37.967 121.47 33 129.98c.108.198.194.366.289.532 8.462 14.506 16.922 29.009 25.387 43.513 1.55 2.656 3.887 3.97 6.988 3.97h36.429c4.918-8.427 9.818-16.822 14.715-25.22.054-.091.095-.193.138-.289.005-.016-.006-.04-.014-.059l-.043-.085H75.947l-27.994-47.988z" fill="url(#prefix__paint1_linear_1065_2)"/><defs><linearGradient id="prefix__paint0_linear_1065_2" x1="130" y1="0" x2="130" y2="260" gradientUnits="userSpaceOnUse"><stop stop-color="#03035F"/><stop offset="1" stop-color="#02023B"/></linearGradient><linearGradient id="prefix__paint1_linear_1065_2" x1="210.718" y1="245.058" x2="27.283" y2="39.114" gradientUnits="userSpaceOnUse"><stop offset=".33" stop-color="#01FEDA"/><stop offset=".665" stop-color="#01FEFE"/></linearGradient></defs></svg>