<svg width="90" height="90" viewBox="0 0 90 90" fill="none" xmlns="http://www.w3.org/2000/svg">
<g clip-path="url(#clip0_1015_470)">
<path d="M0 90H90V0H0V90ZM84.7266 84.7266H5.27344V26.3672H56.8652L72.6855 5.27344H84.7266V84.7266ZM66.0938 5.27344L54.2285 21.0938H5.27344V5.27344H66.0938Z" fill="#E8E8E8"/>
<path d="M21.2695 10.5469H26.543V15.8203H21.2695V10.5469Z" fill="#E8E8E8"/>
<path d="M31.8164 10.5469H37.0898V15.8203H31.8164V10.5469Z" fill="#E8E8E8"/>
<path d="M10.7227 10.5469H15.9961V15.8203H10.7227V10.5469Z" fill="#E8E8E8"/>
<path d="M61.5955 36.8314L55.415 40.3998C54.617 39.8479 53.7803 39.3609 52.9084 38.9443V31.8164H37.0881V38.9443C36.218 39.3609 35.3812 39.8479 34.5814 40.3998L28.401 36.8314L20.4908 50.5336L26.6098 54.0668C26.5623 54.5766 26.5394 55.0688 26.5394 55.5486C26.5394 56.0285 26.5623 56.5207 26.6098 57.0305L20.4908 60.5637L28.401 74.2641L34.5814 70.6957C35.3795 71.2477 36.2162 71.7346 37.0881 72.1512V79.2773H52.9084V72.1494C53.7785 71.7328 54.6152 71.2459 55.415 70.6939L61.5955 74.2623L69.5057 60.5602L63.3867 57.027C63.4342 56.5172 63.457 56.025 63.457 55.5451C63.457 55.0652 63.4342 54.573 63.3867 54.0633L69.5057 50.5301L61.5955 36.8314ZM58.1836 55.5469C58.1836 57.0814 57.8391 58.34 57.5982 59.7762L62.3039 62.492L59.6672 67.0588L54.9158 64.3166C53.9402 65.0566 52.4232 66.8303 49.3893 67.9131L47.6385 68.5371V74.0039H42.365V68.5354L40.6143 67.9113C37.5732 66.8268 36.051 65.0479 35.0877 64.3166L30.3363 67.0588L27.6996 62.492L32.4053 59.7762C32.1662 58.3453 31.8199 57.085 31.8199 55.5486C31.8199 54.0141 32.1644 52.7555 32.4053 51.3193L27.6996 48.6035L30.3363 44.0367L35.0877 46.7789C36.0598 46.0406 37.5803 44.2652 40.6143 43.1824L42.365 42.5584V37.0898H47.6385V42.5584L49.3893 43.1824C52.4197 44.2617 53.9279 46.0283 54.9176 46.7789L59.6689 44.0367L62.3057 48.6035L57.6 51.3193C57.8373 52.7502 58.1836 54.0105 58.1836 55.5469Z" fill="#E8E8E8"/>
<path d="M45 47.6367C40.6389 47.6367 37.0898 51.1857 37.0898 55.5469C37.0898 59.908 40.6389 63.457 45 63.457C49.3611 63.457 52.9102 59.908 52.9102 55.5469C52.9102 51.1857 49.3611 47.6367 45 47.6367ZM45 58.1836C43.5463 58.1836 42.3633 57.0006 42.3633 55.5469C42.3633 54.0932 43.5463 52.9102 45 52.9102C46.4537 52.9102 47.6367 54.0932 47.6367 55.5469C47.6367 57.0006 46.4537 58.1836 45 58.1836Z" fill="#E8E8E8"/>
</g>
<defs>
<clipPath id="clip0_1015_470">
<rect width="90" height="90" fill="white"/>
</clipPath>
</defs>
</svg>
