<svg width="90" height="90" viewBox="0 0 90 90" fill="none" xmlns="http://www.w3.org/2000/svg">
<g clip-path="url(#clip0_1015_509)">
<path d="M68.9271 76.2274C69.008 76.1659 69.0871 76.1061 69.1663 76.0428C70.3867 75.0813 72.1541 75.2905 73.1142 76.5104C74.0762 77.7303 73.8651 79.4969 72.6465 80.4567C69.1522 83.2094 66.0589 78.3913 68.9271 76.2274Z" fill="#E8E8E8"/>
<path d="M0.390107 39.2112C3.57839 14.5614 26.1127 -2.80931 50.7748 0.375844C68.3359 2.64518 82.4783 14.8303 87.7769 30.9934C92.4916 45.3635 89.6708 61.6057 79.6576 73.6643C78.6657 74.8596 76.8931 75.0231 75.699 74.0317C74.5032 73.0403 74.3396 71.2684 75.3315 70.0749C84.0874 59.528 86.5582 45.3108 82.4343 32.7442C77.7319 18.4022 65.0228 7.88522 50.0556 5.95163C28.5272 3.16725 8.75034 18.4128 5.96828 39.9301C1.96578 70.88 33.7537 93.5065 61.4704 80.7219C62.8808 80.0715 64.5515 80.6868 65.2021 82.0965C65.8528 83.5063 65.2373 85.1762 63.8269 85.8266C32.0303 100.494 -4.16986 74.4782 0.390107 39.2112Z" fill="#E8E8E8"/>
<path d="M44.4953 50.9607L40.426 41.1398C38.3245 36.0668 32.479 34.1156 27.9876 36.225C26.5825 36.8859 24.9066 36.2813 24.2472 34.8768C23.5877 33.4723 24.1909 31.7988 25.596 31.1379C32.9573 27.682 42.276 30.9199 45.6208 38.99L49.6901 48.8109C51.7846 53.8664 57.6406 55.8633 62.1689 53.7064C63.5705 53.0385 65.2482 53.6344 65.9164 55.0354C66.5847 56.4363 65.9885 58.1133 64.5869 58.7813C57.1728 62.3092 47.8348 59.0203 44.4953 50.9607Z" fill="#E8E8E8"/>
<path d="M36.958 53.6993C31.6665 56.4626 25.0068 53.8716 23.0865 48.113C23.8866 48.9374 24.4863 49.7495 25.8632 49.7495C28.3288 49.7495 29.6125 46.7647 27.8821 44.9823L22.3444 39.2765C21.2646 38.1638 19.4832 38.1356 18.3682 39.2167L12.6617 44.7503C11.5467 45.8313 11.5204 47.6102 12.6019 48.7247C13.6834 49.8392 15.4631 49.8655 16.578 48.7845L17.2762 48.1077C19.3636 58.2591 30.5744 63.3761 39.5642 58.6809C40.9412 57.962 41.4741 56.264 40.7548 54.8893C40.0338 53.513 38.335 52.9804 36.958 53.6993Z" fill="#E8E8E8"/>
<path d="M77.5687 41.2258C76.4872 40.1114 74.7075 40.085 73.5926 41.1661L72.8944 41.8428C70.8088 31.6967 59.6084 26.5692 50.6063 31.2696C49.2294 31.9885 48.6965 33.6866 49.4158 35.0612C50.135 36.4376 51.8338 36.9702 53.2108 36.2512C58.5023 33.488 65.162 36.079 67.0824 41.8376L66.3227 41.0553C65.2411 39.9409 63.4615 39.9145 62.3465 40.9956C61.2316 42.0766 61.2052 43.8555 62.2867 44.97L67.8245 50.6759C68.906 51.7903 70.6874 51.8149 71.8006 50.7356L77.5089 45.2003C78.6238 44.1192 78.6502 42.3403 77.5687 41.2258Z" fill="#E8E8E8"/>
</g>
<defs>
<clipPath id="clip0_1015_509">
<rect width="90" height="90" fill="white"/>
</clipPath>
</defs>
</svg>
