<svg width="90" height="86" viewBox="0 0 90 86" fill="none" xmlns="http://www.w3.org/2000/svg">
<g clip-path="url(#clip0_1015_1)">
<path d="M88.2422 0H1.75781C0.7875 0 0 0.783886 0 1.74975V19.7476C0 20.7135 0.7875 21.4974 1.75781 21.4974H88.2422C89.2125 21.4974 90 20.7135 90 19.7476V1.74975C90 0.783886 89.2125 0 88.2422 0ZM86.4844 17.9979H3.51562V3.49949H86.4844V17.9979Z" fill="#E8E8E8"/>
<path d="M82.5135 14.0224L81.0774 12.5928C81.4694 11.8212 81.6785 10.9638 81.6785 10.0749C81.6785 8.58242 81.0949 7.17737 80.0332 6.12227C77.843 3.94384 74.2817 3.94209 72.0914 6.12227C71.0315 7.17737 70.4461 8.58242 70.4461 10.0749C70.4461 11.5675 71.0297 12.9725 72.0914 14.0276C73.1531 15.0827 74.5629 15.6654 76.0623 15.6654C76.9553 15.6654 77.8166 15.4572 78.5918 15.067L80.0279 16.4965C80.3707 16.8377 80.8207 17.0092 81.2707 17.0092C81.7207 17.0092 82.1707 16.8377 82.5135 16.4965C83.2008 15.8141 83.2008 14.7065 82.5135 14.0224ZM77.5477 11.5552C77.1504 11.9507 76.6231 12.1676 76.0623 12.1676C75.5016 12.1676 74.9742 11.9507 74.577 11.5552C74.1797 11.1598 73.9617 10.6349 73.9617 10.0767C73.9617 9.51853 74.1797 8.99361 74.577 8.59816C74.9865 8.19047 75.5244 7.9875 76.0623 7.9875C76.6002 7.9875 77.1381 8.19047 77.5477 8.59816C77.9449 8.99361 78.1629 9.51853 78.1629 10.0767C78.1629 10.6349 77.9449 11.1598 77.5477 11.5552Z" fill="#E8E8E8"/>
<path d="M62.9894 13.5747C62.9666 13.4627 62.9332 13.3524 62.8892 13.2475C62.8453 13.1425 62.7908 13.0392 62.7275 12.9448C62.6642 12.8503 62.5904 12.7593 62.5096 12.6788C62.4287 12.5983 62.339 12.5248 62.2424 12.4618C62.1474 12.3988 62.0455 12.3446 61.9383 12.3008C61.8328 12.2571 61.7221 12.2239 61.6096 12.2011C61.3828 12.1556 61.149 12.1556 60.9222 12.2011C60.8097 12.2239 60.699 12.2571 60.5935 12.3008C60.4881 12.3446 60.3861 12.3988 60.2912 12.4618C60.1945 12.5248 60.1049 12.5983 60.0223 12.6788C59.9414 12.7593 59.8693 12.8503 59.8043 12.9448C59.741 13.0392 59.6865 13.1425 59.6426 13.2475C59.5986 13.3524 59.5652 13.4627 59.5424 13.5747C59.5195 13.6884 59.509 13.8021 59.509 13.9176C59.509 14.0313 59.5195 14.1451 59.5424 14.2588C59.5652 14.3708 59.5986 14.481 59.6426 14.586C59.6865 14.691 59.741 14.7925 59.8043 14.8887C59.8693 14.9832 59.9414 15.0742 60.0223 15.1547C60.1049 15.2352 60.1945 15.3087 60.2912 15.3716C60.3861 15.4346 60.4881 15.4889 60.5935 15.5326C60.7008 15.5764 60.8115 15.6096 60.9222 15.6324C61.0365 15.6551 61.1525 15.6656 61.2668 15.6656C61.381 15.6656 61.4971 15.6551 61.6096 15.6324C61.7221 15.6096 61.8328 15.5764 61.9383 15.5326C62.0437 15.4889 62.1474 15.4346 62.2424 15.3716C62.339 15.3087 62.4287 15.2352 62.5096 15.1547C62.8365 14.8275 63.0246 14.3778 63.0246 13.9176C63.0246 13.8021 63.0123 13.6884 62.9894 13.5747Z" fill="#E8E8E8"/>
<path d="M54.6029 12.1677H18.0685C17.0982 12.1677 16.3107 12.9516 16.3107 13.9175C16.3107 14.8833 17.0982 15.6672 18.0685 15.6672H54.6012C55.5715 15.6672 56.359 14.8833 56.359 13.9175C56.3607 12.9499 55.5732 12.1677 54.6029 12.1677Z" fill="#E8E8E8"/>
<path d="M55.3395 23.9924H1.96527C0.994958 23.9924 0.207458 24.7763 0.207458 25.7422V60.2472C0.207458 61.213 0.994958 61.9969 1.96527 61.9969H55.3395C56.3098 61.9969 57.0973 61.213 57.0973 60.2472V25.7422C57.0973 24.7746 56.3098 23.9924 55.3395 23.9924ZM21.4119 58.4957H6.48988L16.5375 46.9141L23.8149 55.3024L21.4119 58.4957ZM25.8065 58.4957L29.0848 54.1458H37.6084C38.5787 54.1458 39.3662 53.3619 39.3662 52.3961C39.3662 51.4302 38.5787 50.6463 37.6084 50.6463H31.7215L32.9555 49.0103H43.9928L51.1401 58.4957H25.8065ZM35.5905 45.5108L38.4733 41.6859L41.3561 45.5108H35.5905ZM53.5817 55.906L39.8778 37.7192C39.5455 37.2783 39.0252 37.0193 38.4715 37.0193C37.9178 37.0193 37.3975 37.2783 37.0653 37.7192L25.9752 52.438L17.87 43.0944C17.536 42.7095 17.0508 42.489 16.5393 42.489C16.0278 42.489 15.5426 42.7095 15.2086 43.0944L3.72308 56.3312V27.4919H53.5817V55.906Z" fill="#E8E8E8"/>
<path d="M24.1963 29.5007C20.7703 29.5007 17.9824 32.2758 17.9824 35.6861C17.9824 39.0963 20.7703 41.8714 24.1963 41.8714C27.6223 41.8714 30.4102 39.0963 30.4102 35.6861C30.4102 32.2758 27.6223 29.5007 24.1963 29.5007ZM24.1963 38.3719C22.7074 38.3719 21.498 37.1664 21.498 35.6861C21.498 34.2058 22.7092 33.0002 24.1963 33.0002C25.6834 33.0002 26.8945 34.2058 26.8945 35.6861C26.8945 37.1664 25.6834 38.3719 24.1963 38.3719Z" fill="#E8E8E8"/>
<path d="M88.2422 23.9924H61.2264C60.2561 23.9924 59.4686 24.7763 59.4686 25.7422V60.2472C59.4686 61.213 60.2561 61.9969 61.2264 61.9969H88.2422C89.2125 61.9969 90 61.213 90 60.2472V25.7422C90 24.7746 89.2125 23.9924 88.2422 23.9924ZM86.4844 58.4957H62.9842V27.4902H86.4844V58.4957Z" fill="#E8E8E8"/>
<path d="M82.3922 30.3738H67.0781C66.1078 30.3738 65.3203 31.1577 65.3203 32.1235C65.3203 33.0894 66.1078 33.8733 67.0781 33.8733H82.3922C83.3625 33.8733 84.15 33.0894 84.15 32.1235C84.15 31.1577 83.3625 30.3738 82.3922 30.3738Z" fill="#E8E8E8"/>
<path d="M82.3922 37.3955H67.0781C66.1078 37.3955 65.3203 38.1794 65.3203 39.1453C65.3203 40.1111 66.1078 40.895 67.0781 40.895H82.3922C83.3625 40.895 84.15 40.1111 84.15 39.1453C84.15 38.1794 83.3625 37.3955 82.3922 37.3955Z" fill="#E8E8E8"/>
<path d="M82.3922 44.4172H67.0781C66.1078 44.4172 65.3203 45.2011 65.3203 46.167C65.3203 47.1329 66.1078 47.9167 67.0781 47.9167H82.3922C83.3625 47.9167 84.15 47.1329 84.15 46.167C84.15 45.2011 83.3625 44.4172 82.3922 44.4172Z" fill="#E8E8E8"/>
<path d="M68.8008 52.8476C68.7779 52.7356 68.7445 52.6254 68.7006 52.5204C68.6566 52.4154 68.6021 52.314 68.5389 52.2177C68.4738 52.1232 68.4017 52.0322 68.3191 51.9518C67.9113 51.5458 67.3049 51.3586 66.7336 51.4741C66.6211 51.4968 66.5103 51.5301 66.4049 51.5738C66.2994 51.6176 66.1975 51.6718 66.1008 51.7348C66.0058 51.7978 65.9144 51.8713 65.8336 51.9518C65.7527 52.0322 65.6789 52.1232 65.6156 52.2177C65.5523 52.314 65.4978 52.4154 65.4539 52.5204C65.4099 52.6254 65.3766 52.7356 65.3537 52.8476C65.3308 52.9614 65.3185 53.0751 65.3185 53.1888C65.3185 53.3043 65.3308 53.418 65.3537 53.5318C65.3766 53.6438 65.4099 53.754 65.4539 53.859C65.4978 53.964 65.5523 54.0654 65.6156 54.1617C65.6789 54.2562 65.7527 54.3472 65.8336 54.4276C65.9144 54.5081 66.0058 54.5816 66.1008 54.6446C66.1975 54.7076 66.2994 54.7618 66.4049 54.8056C66.5103 54.8493 66.6211 54.8826 66.7336 54.9053C66.8478 54.9281 66.9621 54.9403 67.0781 54.9403C67.5404 54.9403 67.9922 54.7531 68.3191 54.4276C68.4 54.3472 68.4738 54.2562 68.5389 54.1617C68.6021 54.0654 68.6566 53.964 68.7006 53.859C68.7445 53.754 68.7779 53.6438 68.8008 53.5318C68.8236 53.418 68.8342 53.3043 68.8342 53.1888C68.8342 53.0751 68.8236 52.9614 68.8008 52.8476Z" fill="#E8E8E8"/>
<path d="M82.3922 51.4407H73.742C72.7717 51.4407 71.9842 52.2246 71.9842 53.1904C71.9842 54.1563 72.7717 54.9402 73.742 54.9402H82.3922C83.3625 54.9402 84.15 54.1563 84.15 53.1904C84.15 52.2246 83.3625 51.4407 82.3922 51.4407Z" fill="#E8E8E8"/>
<path d="M28.9811 64.478H1.96527C0.994959 64.478 0.207458 65.2619 0.207458 66.2278V84.2502C0.207458 85.216 0.994959 85.9999 1.96527 85.9999H28.9811C29.9514 85.9999 30.7389 85.216 30.7389 84.2502V66.2278C30.7389 65.2619 29.9514 64.478 28.9811 64.478ZM27.2233 82.5004H3.72308V67.9775H27.2233V82.5004Z" fill="#E8E8E8"/>
<path d="M88.2422 64.478H35.1088C34.1385 64.478 33.351 65.2619 33.351 66.2278V84.2502C33.351 85.216 34.1385 85.9999 35.1088 85.9999H88.2422C89.2125 85.9999 90 85.216 90 84.2502V66.2278C90 65.2619 89.2125 64.478 88.2422 64.478ZM86.4844 82.5004H36.8666V67.9775H86.4844V82.5004Z" fill="#E8E8E8"/>
<path d="M44.8734 74.8979C44.8506 74.7859 44.8172 74.6756 44.7733 74.5706C44.7293 74.4639 44.6748 74.3624 44.6115 74.2679C44.5482 74.1717 44.4744 74.0825 44.3936 74.002C44.3127 73.9215 44.2231 73.848 44.1264 73.785C44.0315 73.722 43.9295 73.6678 43.8223 73.624C43.7168 73.5803 43.6061 73.5453 43.4936 73.5226C43.2668 73.4788 43.033 73.4788 42.8063 73.5226C42.6955 73.5453 42.5848 73.5803 42.4775 73.624C42.3721 73.6678 42.2701 73.722 42.1752 73.785C42.0785 73.848 41.9889 73.9215 41.908 74.002C41.8272 74.0825 41.7533 74.1717 41.6883 74.2679C41.625 74.3624 41.5705 74.4639 41.5266 74.5706C41.4826 74.6756 41.4492 74.7859 41.4264 74.8979C41.4035 75.0098 41.393 75.1253 41.393 75.2391C41.393 75.3528 41.4035 75.4683 41.4264 75.5803C41.4492 75.6922 41.4826 75.8025 41.5266 75.9092C41.5705 76.0142 41.625 76.1157 41.6883 76.2102C41.7533 76.3064 41.8272 76.3956 41.908 76.4761C42.235 76.8016 42.6885 76.9888 43.1508 76.9888C43.265 76.9888 43.3811 76.9783 43.4936 76.9556C43.6061 76.9328 43.7168 76.8978 43.8223 76.8541C43.9295 76.8103 44.0315 76.7578 44.1264 76.6931C44.2231 76.6301 44.3127 76.5566 44.3936 76.4761C44.4744 76.3956 44.5482 76.3064 44.6115 76.2102C44.6748 76.1157 44.7293 76.0142 44.7733 75.9092C44.8172 75.8025 44.8506 75.6922 44.8734 75.5803C44.8963 75.4683 44.9086 75.3528 44.9086 75.2391C44.9086 75.1253 44.8963 75.0098 44.8734 74.8979Z" fill="#E8E8E8"/>
<path d="M79.3336 73.4893H49.8146C48.8443 73.4893 48.0568 74.2731 48.0568 75.239C48.0568 76.2049 48.8443 76.9887 49.8146 76.9887H79.3336C80.3039 76.9887 81.0914 76.2049 81.0914 75.239C81.0914 74.2731 80.3039 73.4893 79.3336 73.4893Z" fill="#E8E8E8"/>
</g>
<defs>
<clipPath id="clip0_1015_1">
<rect width="90" height="86" fill="white"/>
</clipPath>
</defs>
</svg>
