<svg width="90" height="90" viewBox="0 0 90 90" fill="none" xmlns="http://www.w3.org/2000/svg">
<path d="M65.0268 49.3058L59.0291 55.3036L53.0244 49.2988L67.4297 34.8933C69.0135 35.3398 70.6307 35.5577 72.2373 35.5577C76.8639 35.5577 81.4043 33.7507 84.7969 30.3563C89.7873 25.3657 91.3483 17.8914 88.7713 11.3153L87.3018 7.56401L77.8729 16.9931L74.0654 15.9736L73.0459 12.1661L82.4748 2.73697L78.7254 1.26741C72.1494 -1.30784 64.6752 0.251372 59.6848 5.24366C55.1127 9.81582 53.4199 16.471 55.1479 22.6129L40.7426 37.0185L21.3979 17.6716L26.5307 12.5387L10.6225 0L0 10.6227L12.5385 26.5312L17.6713 21.3983L37.016 40.7434L24.2982 53.4614C17.6941 51.3924 10.4871 53.1204 5.51602 58.0916C1.98633 61.6213 0.0421875 66.3148 0.0421875 71.3071C0.0421875 76.2993 1.98633 80.9928 5.51602 84.5226C9.15996 88.1666 13.9465 89.9877 18.7313 89.9877C23.5178 89.9877 28.3043 88.1666 31.9465 84.5226C36.9176 79.5514 38.6455 72.3459 36.5766 65.74L49.2943 53.0219L55.299 59.0267L49.3014 65.0245L71.0156 86.7392C73.1162 88.8398 75.9076 89.9947 78.8766 89.9947C81.8455 89.9947 84.6387 88.8381 86.7375 86.7392C91.0723 82.4044 91.0723 75.3519 86.7375 71.017L65.0268 49.3058ZM7.03828 11.0393L11.0391 7.03842L18.61 13.0063L13.0078 18.6086L7.03828 11.0393ZM61.2475 23.9665L60.6182 22.3616C58.8059 17.7367 59.9027 12.479 63.4131 8.97029C65.8477 6.53567 69.1225 5.26299 72.4465 5.31573L67.1713 10.591L69.7658 20.2768L79.4514 22.8731L84.7266 17.596C84.7793 20.9184 83.5066 24.1932 81.0721 26.6296C77.5617 30.1383 72.3059 31.2369 67.6811 29.4246L66.0762 28.7953L49.2996 45.5722L44.4727 40.7451L61.2475 23.9665ZM30.4119 64.4567L31.101 66.0898C33.2314 71.1453 32.1012 76.9181 28.2234 80.7977C25.6061 83.4134 22.1713 84.7229 18.7348 84.7212C15.2982 84.7212 11.8617 83.4134 9.24609 80.7977C6.71133 78.2629 5.31563 74.8931 5.31563 71.3088C5.31563 67.7246 6.71133 64.3548 9.24609 61.82C11.823 59.243 15.2367 57.8789 18.7207 57.8789C20.4803 57.8789 22.2574 58.2269 23.9537 58.9424L25.5867 59.6314L40.7461 44.4718L45.5731 49.2988L30.4119 64.4567ZM65.0268 56.7591L69.8537 61.5862L61.585 69.8551L56.758 65.028L65.0268 56.7591ZM83.0145 83.0161C81.9106 84.12 80.441 84.7282 78.8801 84.7282C77.3191 84.7282 75.8496 84.12 74.7457 83.0161L65.3133 73.5835L73.582 65.3146L83.0145 74.7472C85.2943 77.0271 85.2943 80.7362 83.0145 83.0161Z" fill="#E8E8E8"/>
<path d="M18.733 62.625C16.4127 62.625 14.233 63.5285 12.593 65.1686C10.9529 66.8087 10.0494 68.9902 10.0494 71.3088C10.0494 73.6291 10.9529 75.8089 12.593 77.4489C14.233 79.089 16.4144 79.9925 18.733 79.9925C21.0516 79.9925 23.233 79.089 24.873 77.4489C28.2586 74.0633 28.2586 68.5525 24.873 65.1668C23.2348 63.5285 21.0533 62.625 18.733 62.625ZM21.1482 73.7223C20.5031 74.3674 19.6471 74.7225 18.7348 74.7225C17.8225 74.7225 16.9664 74.3674 16.3213 73.7223C15.6762 73.0772 15.3211 72.2211 15.3211 71.3088C15.3211 70.3964 15.6762 69.5404 16.3213 68.8952C16.9664 68.2501 17.8225 67.895 18.7348 67.895C19.6471 67.895 20.5031 68.2501 21.1482 68.8952C22.4789 70.2259 22.4789 72.3916 21.1482 73.7223Z" fill="#E8E8E8"/>
</svg>
